<svg width="70" height="70" viewBox="0 0 70 70" fill="none" xmlns="http://www.w3.org/2000/svg">
<path d="M56.875 12.0312V7.65625C56.875 7.36617 56.7598 7.08797 56.5546 6.88285C56.3495 6.67773 56.0713 6.5625 55.7812 6.5625H49.2188C48.9287 6.5625 48.6505 6.67773 48.4454 6.88285C48.2402 7.08797 48.125 7.36617 48.125 7.65625V12.0312C48.125 12.3213 48.2402 12.5995 48.4454 12.8046C48.6505 13.0098 48.9287 13.125 49.2188 13.125H55.7812C56.0713 13.125 56.3495 13.0098 56.5546 12.8046C56.7598 12.5995 56.875 12.3213 56.875 12.0312ZM54.6875 10.9375H50.3125V8.75H54.6875V10.9375Z" fill="black"/>
<path d="M64.0801 61.8752C62.5831 60.775 60.778 60.1736 58.9203 60.1562C58.8437 60.1562 58.7669 60.1575 58.6899 60.1599C58.6814 60.1341 58.6717 60.1088 58.6626 60.083L62.9777 51.7411C63.2992 51.1155 63.4553 50.4182 63.4314 49.7152C63.4075 49.0123 63.2042 48.3272 62.841 47.725C62.5233 47.1847 62.0709 46.736 61.5281 46.4227C60.9853 46.1095 60.3705 45.9423 59.7437 45.9375H55.7812V17.5H57.9687C58.1873 17.5 58.4009 17.4345 58.5819 17.3119C58.763 17.1894 58.9031 17.0154 58.9843 16.8124L61.1718 11.3437C61.2234 11.2145 61.25 11.0766 61.25 10.9375V5.46875C61.249 4.59882 60.9029 3.76481 60.2878 3.14967C59.6727 2.53454 58.8387 2.18851 57.9687 2.1875H47.0312C46.1613 2.18851 45.3273 2.53454 44.7122 3.14967C44.097 3.76481 43.751 4.59882 43.75 5.46875V10.9375C43.75 11.0766 43.7765 11.2145 43.8282 11.3437L46.0157 16.8124C46.0969 17.0154 46.237 17.1894 46.418 17.3119C46.599 17.4345 46.8126 17.5 47.0312 17.5H49.2187V45.9375H45.2562C44.6294 45.9422 44.0145 46.1093 43.4715 46.4226C42.9286 46.7359 42.4762 47.1846 42.1584 47.725C41.7951 48.3272 41.5919 49.0123 41.5679 49.7152C41.544 50.4182 41.7002 51.1155 42.0217 51.7411L42.7861 53.2187C41.7494 53.7128 40.8493 54.4529 40.1641 55.3745C40.0905 55.3723 40.0176 55.3712 39.9454 55.3711C38.3631 55.3718 36.8247 55.8915 35.5663 56.8507L37.4191 45.7324C38.4145 45.4164 39.264 44.7547 39.8142 43.867C40.3643 42.9792 40.5787 41.924 40.4186 40.8919C40.2585 39.8599 39.7346 38.9192 38.9414 38.2398C38.1482 37.5604 37.1381 37.1871 36.0937 37.1875H22.9687V33.9062H25.4174C27.668 33.9037 29.8256 33.0085 31.4171 31.4171C33.0085 29.8257 33.9037 27.668 33.9062 25.4174V19.6875C33.9062 19.3974 33.791 19.1192 33.5859 18.9141C33.3808 18.709 33.1026 18.5938 32.8125 18.5938H29.2701C28.0815 18.5934 26.9062 18.8431 25.8206 19.3269C24.7349 19.8106 23.7632 20.5174 22.9687 21.4014V17.5H25.4174C27.668 17.4974 29.8256 16.6022 31.4171 15.0108C33.0085 13.4194 33.9037 11.2617 33.9062 9.01113V3.28125C33.9062 2.99117 33.791 2.71297 33.5859 2.50785C33.3808 2.30273 33.1026 2.1875 32.8125 2.1875H29.2701C27.7644 2.18869 26.2861 2.59013 24.9867 3.35071C23.6872 4.11128 22.6133 5.20365 21.875 6.51588C21.1367 5.20365 20.0627 4.11128 18.7633 3.35071C17.4638 2.59013 15.9855 2.18869 14.4799 2.1875H10.9375C10.6474 2.1875 10.3692 2.30273 10.1641 2.50785C9.95896 2.71297 9.84372 2.99117 9.84372 3.28125V9.01113C9.84629 11.2617 10.7415 13.4194 12.3329 15.0108C13.9243 16.6022 16.082 17.4974 18.3326 17.5H20.7812V21.4014C19.9867 20.5174 19.015 19.8106 17.9294 19.3269C16.8437 18.8431 15.6684 18.5934 14.4799 18.5938H10.9375C10.6474 18.5938 10.3692 18.709 10.1641 18.9141C9.95896 19.1192 9.84372 19.3974 9.84372 19.6875V25.4174C9.84629 27.668 10.7415 29.8257 12.3329 31.4171C13.9243 33.0085 16.082 33.9037 18.3326 33.9062H20.7812V37.1875H7.65622C6.61184 37.1871 5.60177 37.5604 4.80858 38.2398C4.01539 38.9192 3.49141 39.8599 3.33134 40.8919C3.17126 41.924 3.38566 42.9792 3.93578 43.867C4.4859 44.7547 5.33544 45.4164 6.33087 45.7324L9.55401 65.0707C9.67972 65.8378 10.0745 66.535 10.6676 67.0374C11.2607 67.5398 12.0133 67.8146 12.7906 67.8125H65.625C65.9151 67.8125 66.1933 67.6973 66.3984 67.4921C66.6035 67.287 66.7187 67.0088 66.7187 66.7188C66.7187 64.8569 65.7817 63.1367 64.0801 61.8752ZM22.9687 10.6764C22.9706 9.00572 23.6351 7.40403 24.8164 6.22271C25.9978 5.04138 27.5994 4.37688 29.2701 4.375H31.7187V9.01113C31.7168 10.6818 31.0523 12.2835 29.871 13.4648C28.6897 14.6461 27.088 15.3106 25.4174 15.3125H24.2101L28.184 10.5439C28.2793 10.434 28.3517 10.3062 28.397 10.168C28.4422 10.0298 28.4595 9.88395 28.4478 9.73899C28.436 9.59403 28.3954 9.45287 28.3285 9.32377C28.2615 9.19467 28.1695 9.08022 28.0577 8.98712C27.946 8.89402 27.8168 8.82415 27.6777 8.78158C27.5387 8.739 27.3925 8.7246 27.2478 8.73919C27.1031 8.75379 26.9628 8.7971 26.835 8.86659C26.7072 8.93608 26.5946 9.03035 26.5037 9.14389L26.5004 9.14785L26.4996 9.14867L22.9687 13.3848V10.6764ZM22.9687 27.0826C22.9706 25.412 23.6351 23.8103 24.8164 22.629C25.9978 21.4476 27.5994 20.7831 29.2701 20.7812H31.7187V25.4174C31.7168 27.088 31.0523 28.6897 29.871 29.871C28.6897 31.0524 27.088 31.7169 25.4174 31.7188H24.2101L28.184 26.9501C28.2793 26.8402 28.3517 26.7125 28.397 26.5743C28.4422 26.436 28.4595 26.2902 28.4478 26.1452C28.436 26.0003 28.3954 25.8591 28.3285 25.73C28.2615 25.6009 28.1695 25.4865 28.0577 25.3934C27.946 25.3003 27.8168 25.2304 27.6777 25.1878C27.5387 25.1453 27.3925 25.1308 27.2478 25.1454C27.1031 25.16 26.9628 25.2034 26.835 25.2728C26.7072 25.3423 26.5946 25.4366 26.5037 25.5501L26.5004 25.5541L26.4996 25.5549L22.9687 29.791V27.0826ZM47.7718 15.3125L45.9375 10.7268V5.46875C45.9378 5.17877 46.0531 4.90076 46.2582 4.69571C46.4632 4.49066 46.7412 4.37533 47.0312 4.375H57.9687C58.2587 4.37533 58.5367 4.49066 58.7418 4.69571C58.9468 4.90076 59.0622 5.17877 59.0625 5.46875V10.7268L57.2281 15.3125H54.6875C54.3974 15.3125 54.1192 15.4277 53.9141 15.6329C53.709 15.838 53.5937 16.1162 53.5937 16.4062V26.25H51.4062V16.4062C51.4062 16.1162 51.291 15.838 51.0859 15.6329C50.8808 15.4277 50.6026 15.3125 50.3125 15.3125H47.7718ZM51.4062 30.625V28.4375H53.5937V30.625H51.4062ZM53.5937 32.8125V49.2805C53.5937 49.4288 53.5636 49.5755 53.5052 49.7117C53.4467 49.8479 53.3612 49.9709 53.2538 50.073C53.1464 50.1752 53.0193 50.2545 52.8803 50.306C52.7414 50.3576 52.5933 50.3803 52.4453 50.3729C52.1582 50.3478 51.8913 50.2147 51.6984 50.0005C51.5056 49.7863 51.4011 49.5069 51.4062 49.2188V32.8125H53.5937ZM44.0271 48.8623C44.162 48.6406 44.5518 48.125 45.2562 48.125H49.2187V49.2188C49.2095 50.0705 49.5291 50.893 50.111 51.515C50.6929 52.137 51.4923 52.5106 52.3428 52.5581C52.3963 52.5606 52.4497 52.5618 52.5028 52.5618C53.3459 52.5641 54.1569 52.2389 54.7647 51.6548C55.0853 51.3479 55.3405 50.9794 55.5152 50.5714C55.6899 50.1634 55.7803 49.7243 55.7812 49.2805V48.125H59.7437C60.4481 48.125 60.8375 48.6406 60.9728 48.8623C61.1421 49.1434 61.2367 49.4631 61.2476 49.7911C61.2585 50.1191 61.1853 50.4443 61.0351 50.7361L57.3624 57.8361C56.6848 57.0619 55.8495 56.4414 54.9126 56.0163C53.9757 55.5912 52.9587 55.3712 51.9299 55.3711C51.8574 55.3711 51.7845 55.3722 51.7111 55.3745C51.0393 54.4786 50.1674 53.7521 49.165 53.253C48.1625 52.7539 47.0573 52.496 45.9375 52.5C45.5957 52.5009 45.2543 52.5259 44.916 52.5748L43.9649 50.7363C43.8146 50.4446 43.7414 50.1192 43.7523 49.7912C43.7632 49.4632 43.8578 49.1435 44.0271 48.8623ZM15.5661 10.5438L19.5398 15.3125H18.3326C16.6619 15.3106 15.0603 14.6461 13.8789 13.4648C12.6976 12.2835 12.0331 10.6818 12.0312 9.01113V4.375H14.4799C16.1505 4.37688 17.7522 5.04138 18.9335 6.22271C20.1148 7.40403 20.7793 9.00572 20.7812 10.6764V13.3848L17.2506 9.14785L17.2498 9.14703L17.2465 9.14307C17.1556 9.02953 17.043 8.93526 16.9152 8.86577C16.7875 8.79628 16.6471 8.75297 16.5024 8.73837C16.3577 8.72378 16.2116 8.73818 16.0725 8.78076C15.9334 8.82333 15.8042 8.89321 15.6925 8.9863C15.5808 9.0794 15.4887 9.19385 15.4218 9.32295C15.3548 9.45205 15.3142 9.59321 15.3025 9.73817C15.2907 9.88313 15.308 10.029 15.3533 10.1672C15.3986 10.3054 15.471 10.4332 15.5662 10.5431L15.5661 10.5438ZM15.5661 26.95L19.5398 31.7188H18.3326C16.6619 31.7169 15.0603 31.0524 13.8789 29.871C12.6976 28.6897 12.0331 27.088 12.0312 25.4174V20.7812H14.4799C16.1505 20.7831 17.7522 21.4476 18.9335 22.629C20.1148 23.8103 20.7793 25.412 20.7812 27.0826V29.791L17.2506 25.5541L17.2498 25.5533L17.2465 25.5493C17.1556 25.4358 17.043 25.3415 16.9152 25.272C16.7875 25.2025 16.6471 25.1592 16.5024 25.1446C16.3577 25.13 16.2116 25.1444 16.0725 25.187C15.9334 25.2296 15.8042 25.2995 15.6925 25.3926C15.5808 25.4856 15.4887 25.6001 15.4218 25.7292C15.3548 25.8583 15.3142 25.9995 15.3025 26.1444C15.2907 26.2894 15.308 26.4352 15.3533 26.5734C15.3986 26.7116 15.471 26.8394 15.5662 26.9493L15.5661 26.95ZM5.46872 41.5625C5.46941 40.9826 5.7001 40.4265 6.11018 40.0165C6.52027 39.6064 7.07627 39.3757 7.65622 39.375H36.0937C36.6739 39.375 37.2303 39.6055 37.6405 40.0157C38.0508 40.4259 38.2812 40.9823 38.2812 41.5625C38.2812 42.1427 38.0508 42.6991 37.6405 43.1093C37.2303 43.5195 36.6739 43.75 36.0937 43.75H7.65622C7.07627 43.7493 6.52027 43.5186 6.11018 43.1085C5.7001 42.6985 5.46941 42.1424 5.46872 41.5625ZM25.2682 65.625H12.7906C12.5315 65.6257 12.2806 65.534 12.0829 65.3666C11.8852 65.1991 11.7536 64.9667 11.7117 64.711L8.58276 45.9375H35.1672L32.7968 60.1597C30.9938 60.2094 29.2489 60.8079 27.7949 61.8752C26.4325 62.8853 25.5619 64.1895 25.2682 65.625ZM27.5377 65.625C28.2373 63.6892 30.7089 62.3438 32.9548 62.3438C33.2495 62.3441 33.5437 62.3698 33.834 62.4206C33.9769 62.4454 34.1234 62.4416 34.2648 62.4093C34.4062 62.377 34.5397 62.3169 34.6577 62.2324C34.7756 62.148 34.8756 62.041 34.9518 61.9176C35.028 61.7942 35.0789 61.6569 35.1016 61.5136C35.4576 59.259 37.5399 57.5586 39.9451 57.5586C40.1595 57.5592 40.3736 57.5729 40.5863 57.5996C40.7978 57.626 41.0124 57.5899 41.2036 57.4958C41.3948 57.4016 41.5542 57.2535 41.6623 57.0698C42.1129 56.3414 42.7422 55.7403 43.4904 55.3233C44.2386 54.9064 45.081 54.6876 45.9375 54.6876C46.794 54.6876 47.6363 54.9064 48.3845 55.3233C49.1327 55.7403 49.762 56.3414 50.2127 57.0698C50.3207 57.2535 50.4802 57.4015 50.6714 57.4957C50.8626 57.5898 51.0772 57.6259 51.2887 57.5996C51.5014 57.5729 51.7155 57.5592 51.9299 57.5586C54.3352 57.5586 56.4175 59.259 56.7735 61.5136C56.7962 61.6569 56.8471 61.7942 56.9233 61.9176C56.9995 62.041 57.0995 62.148 57.2174 62.2324C57.3354 62.3169 57.4689 62.377 57.6103 62.4093C57.7517 62.4416 57.8981 62.4454 58.041 62.4206C58.3314 62.3698 58.6255 62.3441 58.9203 62.3438C61.1662 62.3438 63.6371 63.6892 64.3374 65.625H27.5377Z" fill="black"/>
</svg>
