<svg width="70" height="70" viewBox="0 0 70 70" fill="none" xmlns="http://www.w3.org/2000/svg">
<path d="M26.0859 28.9953L20.7812 26.6328V25.0688C21.7836 24.485 22.6609 23.7092 23.3628 22.7858C24.0648 21.8623 24.5776 20.8095 24.8719 19.6875H25.1562C26.0265 19.6875 26.8611 19.3418 27.4764 18.7264C28.0918 18.1111 28.4375 17.2765 28.4375 16.4062C28.4375 15.536 28.0918 14.7014 27.4764 14.0861C26.8611 13.4707 26.0265 13.125 25.1562 13.125V12.2063L27.2891 5.81875C27.3515 5.62481 27.36 5.41755 27.3138 5.21912C27.2676 5.0207 27.1683 4.83856 27.0266 4.69219L24.8391 2.50469C24.6305 2.30322 24.3525 2.18966 24.0625 2.1875H8.75C8.46003 2.18966 8.182 2.30322 7.97344 2.50469L5.78594 4.69219C5.64422 4.83856 5.54494 5.0207 5.4987 5.21912C5.45247 5.41755 5.46102 5.62481 5.52344 5.81875L7.65625 12.2063V13.125C6.78601 13.125 5.95141 13.4707 5.33606 14.0861C4.7207 14.7014 4.375 15.536 4.375 16.4062C4.375 17.2765 4.7207 18.1111 5.33606 18.7264C5.95141 19.3418 6.78601 19.6875 7.65625 19.6875H7.94063C8.23492 20.8095 8.74773 21.8623 9.44968 22.7858C10.1516 23.7092 11.0289 24.485 12.0312 25.0688V26.6328L6.72656 28.9953C5.37579 29.5974 4.22831 30.5779 3.42281 31.8182C2.6173 33.0584 2.18825 34.5055 2.1875 35.9844V52.5C2.1875 53.6603 2.64844 54.7731 3.46891 55.5936C4.28938 56.4141 5.40218 56.875 6.5625 56.875V66.7188C6.5625 67.0088 6.67773 67.287 6.88285 67.4921C7.08797 67.6973 7.36617 67.8125 7.65625 67.8125H25.1562C25.4463 67.8125 25.7245 67.6973 25.9296 67.4921C26.1348 67.287 26.25 67.0088 26.25 66.7188V56.875C27.4103 56.875 28.5231 56.4141 29.3436 55.5936C30.1641 54.7731 30.625 53.6603 30.625 52.5V35.9844C30.6243 34.5055 30.1952 33.0584 29.3897 31.8182C28.5842 30.5779 27.4367 29.5974 26.0859 28.9953ZM25.1562 15.3125C25.4463 15.3125 25.7245 15.4277 25.9296 15.6329C26.1348 15.838 26.25 16.1162 26.25 16.4062C26.25 16.6963 26.1348 16.9745 25.9296 17.1796C25.7245 17.3848 25.4463 17.5 25.1562 17.5V15.3125ZM7.65625 17.5C7.36617 17.5 7.08797 17.3848 6.88285 17.1796C6.67773 16.9745 6.5625 16.6963 6.5625 16.4062C6.5625 16.1162 6.67773 15.838 6.88285 15.6329C7.08797 15.4277 7.36617 15.3125 7.65625 15.3125V17.5ZM7.80937 5.76406L9.19844 4.375H23.6141L25.0031 5.76406L24.7297 6.5625H8.08281L7.80937 5.76406ZM8.80469 8.75H24.0078L23.275 10.9375H9.5375L8.80469 8.75ZM22.7828 13.125C22.5546 13.7638 22.1349 14.3166 21.581 14.7081C21.027 15.0996 20.3658 15.3106 19.6875 15.3125H13.125C12.4467 15.3106 11.7855 15.0996 11.2315 14.7081C10.6776 14.3166 10.2579 13.7638 10.0297 13.125H22.7828ZM9.84375 17.5V16.3734C10.7833 17.1006 11.9369 17.4967 13.125 17.5H19.6875C20.8756 17.4967 22.0292 17.1006 22.9688 16.3734V17.5C22.9688 19.2405 22.2773 20.9097 21.0466 22.1404C19.8159 23.3711 18.1467 24.0625 16.4062 24.0625C14.6658 24.0625 12.9966 23.3711 11.7659 22.1404C10.5352 20.9097 9.84375 19.2405 9.84375 17.5ZM14.2188 26.5563V25.9656C15.6524 26.3448 17.1601 26.3448 18.5938 25.9656V26.5563L16.4062 27.2891L14.2188 26.5563ZM14.3828 28.9188L13.1359 30.1547L12.0422 29.0172L13.1797 28.5141L14.3828 28.9188ZM19.6328 28.5141L20.7703 29.0172L19.6766 30.1547L18.4297 28.9188L19.6328 28.5141ZM6.5625 54.6875C5.98287 54.6858 5.42748 54.4547 5.01762 54.0449C4.60776 53.635 4.37673 53.0796 4.375 52.5H6.5625V54.6875ZM24.0625 65.625H17.5V56.875H15.3125V65.625H8.75V53.5938H24.0625V65.625ZM26.25 54.6875V52.5H28.4375C28.4358 53.0796 28.2047 53.635 27.7949 54.0449C27.385 54.4547 26.8296 54.6858 26.25 54.6875ZM28.4375 50.3125H26.25V35H24.0625V51.4062H8.75V35H6.5625V50.3125H4.375V35.9844C4.3761 34.9265 4.68343 33.8916 5.25987 33.0047C5.83631 32.1177 6.65721 31.4165 7.62344 30.9859L9.92031 29.9688L12.3375 32.4734C12.4367 32.5803 12.5569 32.6655 12.6905 32.7239C12.8241 32.7822 12.9683 32.8124 13.1141 32.8125H13.125C13.4145 32.8083 13.6918 32.695 13.9016 32.4953L16.4062 29.9797L18.9109 32.4953C19.1207 32.695 19.398 32.8083 19.6875 32.8125H19.6984C19.8442 32.8124 19.9884 32.7822 20.122 32.7239C20.2556 32.6655 20.3758 32.5803 20.475 32.4734L22.8922 29.9688L25.1891 30.9859C26.1553 31.4165 26.9762 32.1177 27.5526 33.0047C28.1291 33.8916 28.4364 34.9265 28.4375 35.9844V50.3125Z" fill="black"/>
<path d="M50.3125 56.875H39.375V59.0625H50.3125V56.875Z" fill="black"/>
<path d="M50.3125 52.5H39.375V54.6875H50.3125V52.5Z" fill="black"/>
<path d="M61.25 55.7813C61.25 55.1323 61.0576 54.4979 60.697 53.9583C60.3365 53.4187 59.824 52.9981 59.2244 52.7498C58.6249 52.5014 57.9651 52.4364 57.3286 52.563C56.6921 52.6897 56.1075 53.0022 55.6486 53.4611C55.1897 53.9199 54.8772 54.5046 54.7505 55.1411C54.6239 55.7776 54.6889 56.4374 54.9373 57.0369C55.1856 57.6365 55.6062 58.149 56.1458 58.5095C56.6854 58.8701 57.3198 59.0625 57.9688 59.0625C58.839 59.0625 59.6736 58.7168 60.2889 58.1014C60.9043 57.4861 61.25 56.6515 61.25 55.7813ZM56.875 55.7813C56.875 55.5649 56.9391 55.3535 57.0593 55.1736C57.1795 54.9937 57.3503 54.8535 57.5502 54.7708C57.7501 54.688 57.97 54.6663 58.1821 54.7085C58.3943 54.7507 58.5892 54.8549 58.7422 55.0079C58.8951 55.1608 58.9993 55.3557 59.0415 55.5679C59.0837 55.78 59.062 56 58.9792 56.1998C58.8965 56.3997 58.7563 56.5705 58.5764 56.6907C58.3965 56.8109 58.1851 56.875 57.9688 56.875C57.6787 56.875 57.4005 56.7598 57.1954 56.5546C56.9902 56.3495 56.875 56.0713 56.875 55.7813Z" fill="black"/>
<path d="M31.7187 59.0625C32.5889 59.0625 33.4235 58.7168 34.0389 58.1014C34.6542 57.4861 34.9999 56.6515 34.9999 55.7812C34.9999 54.911 34.6542 54.0764 34.0389 53.4611C33.4235 52.8457 32.5889 52.5 31.7187 52.5V54.6875C31.9106 54.6877 32.0992 54.7384 32.2653 54.8345C32.4315 54.9306 32.5694 55.0688 32.6652 55.2351C32.7611 55.4014 32.8115 55.59 32.8114 55.7819C32.8113 55.9739 32.7606 56.1624 32.6646 56.3286C32.5685 56.4948 32.4304 56.6328 32.2642 56.7287C32.0979 56.8246 31.9093 56.875 31.7174 56.875C31.5254 56.875 31.3369 56.8244 31.1706 56.7284C31.0044 56.6324 30.8664 56.4944 30.7704 56.3281L28.8771 57.4219C29.166 57.9199 29.5804 58.3335 30.079 58.6214C30.5776 58.9093 31.143 59.0614 31.7187 59.0625Z" fill="black"/>
<path d="M66.7188 47.0312C66.7162 46.1618 66.3696 45.3287 65.7548 44.7139C65.14 44.0991 64.3069 43.7526 63.4375 43.75C62.8071 43.7512 62.191 43.9376 61.6656 44.2859L60.1125 40.1406L59.2375 36.6516C59.1196 36.1786 58.8464 35.7588 58.4617 35.4594C58.0771 35.16 57.6031 34.9982 57.1156 35H51.4062V31.7188C51.4062 31.4287 51.291 31.1505 51.0859 30.9454C50.8808 30.7402 50.6026 30.625 50.3125 30.625H39.375C39.0849 30.625 38.8067 30.7402 38.6016 30.9454C38.3965 31.1505 38.2812 31.4287 38.2812 31.7188V35H32.8125V37.1875H57.1156L57.6625 39.375H32.8125V41.5625H58.3078L60.7688 48.125H41.4094C41.1706 47.1865 40.6259 46.3543 39.8613 45.7599C39.0967 45.1655 38.1559 44.8429 37.1875 44.8429C36.2191 44.8429 35.2783 45.1655 34.5137 45.7599C33.7491 46.3543 33.2044 47.1865 32.9656 48.125H32.8125V50.3125H62.3438C62.6338 50.3125 62.912 50.4277 63.1171 50.6329C63.3223 50.838 63.4375 51.1162 63.4375 51.4062V60.1562C63.4375 60.4463 63.3223 60.7245 63.1171 60.9296C62.912 61.1348 62.6338 61.25 62.3438 61.25H28.4375V63.4375H30.625V65.625H28.4375V67.8125H30.625C31.2046 67.8108 31.76 67.5797 32.1699 67.1699C32.5797 66.76 32.8108 66.2046 32.8125 65.625V63.4375H56.875V65.625C56.8767 66.2046 57.1078 66.76 57.5176 67.1699C57.9275 67.5797 58.4829 67.8108 59.0625 67.8125H63.4375C64.0171 67.8108 64.5725 67.5797 64.9824 67.1699C65.3922 66.76 65.6233 66.2046 65.625 65.625V51.4062C65.6229 50.8412 65.472 50.2867 65.1875 49.7984C65.6564 49.5048 66.043 49.0968 66.3108 48.6128C66.5787 48.1287 66.7191 47.5845 66.7188 47.0312ZM49.2188 35H40.4688V32.8125H49.2188V35ZM35.3062 48.125C35.4953 47.7928 35.769 47.5166 36.0994 47.3244C36.4298 47.1322 36.8053 47.031 37.1875 47.031C37.5697 47.031 37.9452 47.1322 38.2756 47.3244C38.606 47.5166 38.8797 47.7928 39.0688 48.125H35.3062ZM63.4375 65.625H59.0625V63.4375H62.3438C62.7169 63.4345 63.0868 63.368 63.4375 63.2406V65.625ZM63.4375 48.125C63.3143 48.1245 63.1921 48.1023 63.0766 48.0594L62.4969 46.4953C62.5885 46.3259 62.7244 46.1846 62.8901 46.0863C63.0557 45.9881 63.2449 45.9367 63.4375 45.9375C63.7276 45.9375 64.0058 46.0527 64.2109 46.2579C64.416 46.463 64.5312 46.7412 64.5312 47.0312C64.5312 47.3213 64.416 47.5995 64.2109 47.8046C64.0058 48.0098 63.7276 48.125 63.4375 48.125Z" fill="black"/>
</svg>
