<svg width="70" height="70" viewBox="0 0 70 70" fill="none" xmlns="http://www.w3.org/2000/svg">
<path d="M67.6667 9.33333C67.6667 4.17847 63.4882 0 58.3333 0C53.1785 0 49 4.17847 49 9.33333V21H48.3899C47.7097 20.125 47.1036 19.1953 46.5778 18.2201C45.6652 15.3159 44.9839 12.3446 44.5396 9.33333H45.5C46.1443 9.33333 46.6667 8.81095 46.6667 8.16667V1.16667C46.6667 0.522379 46.1443 0 45.5 0H31.5C30.8557 0 30.3333 0.522379 30.3333 1.16667V8.16667C30.3333 8.81095 30.8557 9.33333 31.5 9.33333H32.4604C32.0161 12.3451 31.3348 15.3171 30.4222 18.2212C29.8958 19.1959 29.2897 20.1256 28.6101 21H18.6667V30.3333H5.83333C5.18905 30.3333 4.66667 30.8557 4.66667 31.5V35.8169L0.195964 42.519C0.152669 42.5947 0.113932 42.6728 0.079183 42.7525C0.040446 42.8881 0.0136719 43.0265 0 43.1667V68.8333C0 69.4776 0.522379 70 1.16667 70H70V21H67.6667V9.33333ZM51.3333 9.33333C51.3333 5.46761 54.4676 2.33333 58.3333 2.33333C62.1991 2.33333 65.3333 5.46761 65.3333 9.33333V21H51.3333V9.33333ZM61.8333 60.4331L66.6538 67.6667H57.0129L61.8333 60.4331ZM60.6667 57.9836L56 64.9836V23.3333H60.6667V57.9836ZM2.33333 44.3333H23.3333V58.5669C22.6714 58.8711 22.0977 59.3376 21.6648 59.9233C21.1982 60.4895 21.008 60.6712 20.6149 60.6712C20.2218 60.6712 20.0316 60.4895 19.565 59.9233C18.9287 58.9639 17.868 58.3715 16.7173 58.3333C15.57 58.3721 14.5116 58.9628 13.8764 59.9187C13.4098 60.4849 13.2207 60.6667 12.8265 60.6667C12.4317 60.6667 12.2489 60.4849 11.7766 59.9187C11.142 58.9634 10.0853 58.3726 8.93913 58.3333C7.79126 58.3715 6.73283 58.9628 6.09823 59.9198C5.63167 60.4849 5.44255 60.6667 5.04834 60.6667C4.6735 60.6667 4.49862 60.5163 3.99788 59.9198C3.56722 59.3325 2.99471 58.8643 2.33333 58.5583V44.3333ZM28 38.7751L29.6121 42H26.3879L28 38.7751ZM42 44.3333C39.2292 44.3305 36.8411 42.3811 36.2834 39.6667H37.3333C40.1042 39.6695 42.4922 41.6189 43.0499 44.3333H42ZM43.1667 46.6667C48.9658 46.6667 53.6667 51.3675 53.6667 57.1667C53.6667 62.9658 48.9658 67.6667 43.1667 67.6667C37.3675 67.6667 32.6667 62.9658 32.6667 57.1667C32.6729 51.3704 37.3704 46.6729 43.1667 46.6667ZM32.6667 2.33333H35V4.66667H37.3333V2.33333H39.6667V4.66667H42V2.33333H44.3333V7H32.6667V2.33333ZM32.5778 19.1133C33.5918 15.9198 34.3443 12.6488 34.8274 9.33333H42.1772C42.6602 12.6488 43.4128 15.9192 44.4268 19.1121C44.7423 19.7695 45.1098 20.4007 45.5256 21H31.4744C31.8908 20.4013 32.2599 19.7701 32.5778 19.1133ZM21 23.3333H53.6667V25.6667H43.1667V28H53.6667V30.3333H49V32.6667H53.6667V49.8169C51.752 47.0814 48.8485 45.1986 45.5701 44.5669C45.8031 42.658 46.8148 38.5 51.3333 38.5V36.1667C48.1506 36.0618 45.2533 37.9907 44.122 40.9678C42.6084 38.6982 40.0614 37.335 37.3333 37.3333H35C34.3557 37.3333 33.8333 37.8557 33.8333 38.5C33.8379 41.3779 35.3572 44.0405 37.8312 45.5091C35.7594 46.4633 33.9775 47.9495 32.6667 49.8169V43.1667C32.6513 43.0311 32.6245 42.8966 32.5863 42.7651C32.5755 42.7394 32.551 42.6591 32.5442 42.6488L29.1667 35.8915V31.5C29.1667 30.8557 28.6443 30.3333 28 30.3333H21V23.3333ZM7 32.6667H26.8333V35H7V32.6667ZM6.45768 37.3333H26.1121L23.7788 42H3.34619L6.45768 37.3333ZM2.33333 67.6667V61.557C2.95825 62.4429 3.96655 62.9784 5.05062 63C6.19792 62.9613 7.25578 62.3705 7.89152 61.4146C8.35807 60.8484 8.54606 60.6667 8.94141 60.6667C9.33675 60.6667 9.51904 60.8484 9.99129 61.4135C10.6259 62.3711 11.6849 62.9624 12.8333 63C13.9812 62.9613 15.0396 62.3705 15.6754 61.4146C16.1419 60.8484 16.3299 60.6667 16.7253 60.6667C17.1206 60.6667 17.3086 60.8484 17.7751 61.4146C18.4109 62.3694 19.4676 62.9601 20.6138 63C21.6978 62.9784 22.7067 62.444 23.3333 61.5593V67.6667H2.33333ZM25.6667 67.6667V44.3333H30.3333V67.6667H25.6667ZM32.6667 67.6667V64.5227C33.5274 65.7446 34.5927 66.8082 35.8169 67.6667H32.6667ZM50.5227 67.6667C51.7441 66.8076 52.8076 65.7441 53.6667 64.5227V67.6667H50.5227ZM67.6667 64.9836L63 57.9836V23.3333H67.6667V64.9836Z" fill="black"/>
<path d="M54.4642 11.727L61.4642 9.39136L62.2025 11.6039L55.2025 13.9395L54.4642 11.727Z" fill="black"/>
<path d="M54.4653 17.5605L61.4648 15.2249L62.203 17.4368L55.203 19.773L54.4653 17.5605Z" fill="black"/>
<path d="M4.66666 50.1666C4.66666 53.433 8.25438 55.9999 12.8333 55.9999C17.4123 55.9999 21 53.433 21 50.1666C21 46.9001 17.4123 44.3333 12.8333 44.3333C8.25438 44.3333 4.66666 46.9001 4.66666 50.1666ZM12.8333 46.6666C15.9949 46.6666 18.6667 48.2696 18.6667 50.1666C18.6667 52.0636 15.9949 53.6666 12.8333 53.6666C9.6717 53.6666 6.99999 52.0636 6.99999 50.1666C6.99999 48.2696 9.6717 46.6666 12.8333 46.6666Z" fill="black"/>
<path d="M35 57.2323C35.1549 60.0321 37.3066 65.3334 44.3333 65.3334V63.0001C37.8979 63.0001 37.3692 57.7011 37.3333 57.0967L35 57.2323Z" fill="black"/>
<path d="M36.1667 52.5H38.5V54.8333H36.1667V52.5Z" fill="black"/>
<path d="M39.6667 49H42V51.3333H39.6667V49Z" fill="black"/>
<path d="M35 28H37.3333V30.3333H35V28Z" fill="black"/>
</svg>
