<svg width="70" height="70" viewBox="0 0 70 70" fill="none" xmlns="http://www.w3.org/2000/svg">
<path d="M16.6797 24.6091H18.7305V47.4413H16.6797V24.6091Z" fill="black"/>
<path d="M65.2977 0H21.3819L16.6797 4.7023V22.5585H18.7305V18.4569H67.9492V63.8477H58.7207V65.8984H66.4992L64.4484 67.9492H26.9335V70H65.2977L70 65.2977V4.7023L65.2977 0ZM22.2313 2.05078H64.4484L66.4992 4.10156H20.1805L22.2313 2.05078ZM18.7305 16.4061V6.15234H67.9492V16.4061H18.7305Z" fill="black"/>
<path d="M25.2246 43.203C25.2246 53.1918 33.351 61.3182 43.3398 61.3182C53.3287 61.3182 61.4549 53.1918 61.4549 43.203C61.4549 33.2142 53.3287 25.0879 43.3398 25.0879C33.351 25.0879 25.2246 33.2142 25.2246 43.203ZM59.4042 43.203C59.4042 52.061 52.1977 59.2674 43.3398 59.2674C34.4818 59.2674 27.2754 52.061 27.2754 43.203C27.2754 34.345 34.4818 27.1387 43.3398 27.1387C52.1977 27.1387 59.4042 34.345 59.4042 43.203Z" fill="black"/>
<path d="M29.3194 43.203C29.3194 50.9339 35.609 57.2235 43.3399 57.2235C46.6754 57.2235 49.9076 56.0319 52.441 53.868L51.1091 52.3087C48.9467 54.1557 46.1875 55.1727 43.3399 55.1727C36.7398 55.1727 31.3701 49.8032 31.3701 43.203C31.3701 42.8575 31.3857 42.5157 31.4146 42.1776H40.8645L44.9659 46.2792H54.906C54.4492 47.9966 53.6142 49.604 52.4455 50.9723L54.0049 52.3042C56.1686 49.771 57.3603 46.5388 57.3603 43.203C57.3603 35.4721 51.0708 29.1826 43.3399 29.1826C35.609 29.1826 29.3194 35.4721 29.3194 43.203ZM54.9081 40.127H47.9708V42.1777H55.265C55.2939 42.5158 55.3095 42.8576 55.3095 43.2031C55.3095 43.5466 55.2939 43.8886 55.2646 44.2285H45.8152L41.7137 40.127H31.7716C33.1327 35.0127 37.8029 31.2334 43.3399 31.2334C48.8767 31.2334 53.5469 35.0127 54.9081 40.127Z" fill="black"/>
<path d="M62.8223 8.20312C61.1261 8.20312 59.7461 9.58303 59.7461 11.2793C59.7461 12.9756 61.1261 14.3555 62.8223 14.3555C64.5184 14.3555 65.8984 12.9754 65.8984 11.2793C65.8984 9.58316 64.5184 8.20312 62.8223 8.20312ZM62.8223 12.3047C62.2568 12.3047 61.7969 11.8448 61.7969 11.2793C61.7969 10.7138 62.2568 10.2539 62.8223 10.2539C63.3877 10.2539 63.8477 10.7138 63.8477 11.2793C63.8477 11.8448 63.3877 12.3047 62.8223 12.3047Z" fill="black"/>
<path d="M54.6193 8.20312C52.9232 8.20312 51.5431 9.58303 51.5431 11.2793C51.5431 12.9756 52.9232 14.3555 54.6193 14.3555C56.3154 14.3555 57.6955 12.9756 57.6955 11.2793C57.6955 9.58303 56.3154 8.20312 54.6193 8.20312ZM54.6193 12.3047C54.0538 12.3047 53.5939 11.8448 53.5939 11.2793C53.5939 10.7138 54.0538 10.2539 54.6193 10.2539C55.1848 10.2539 55.6447 10.7138 55.6447 11.2793C55.6447 11.8448 55.1848 12.3047 54.6193 12.3047Z" fill="black"/>
<path d="M46.4164 8.20312C44.7202 8.20312 43.3402 9.58303 43.3402 11.2793C43.3402 12.9756 44.7202 14.3555 46.4164 14.3555C48.1125 14.3555 49.4925 12.9756 49.4925 11.2793C49.4925 9.58303 48.1125 8.20312 46.4164 8.20312ZM46.4164 12.3047C45.8509 12.3047 45.391 11.8448 45.391 11.2793C45.391 10.7138 45.8509 10.2539 46.4164 10.2539C46.9818 10.2539 47.4417 10.7138 47.4417 11.2793C47.4417 11.8448 46.9818 12.3047 46.4164 12.3047Z" fill="black"/>
<path d="M20.7812 14.3555H35.1366V8.20312H20.7812V14.3555ZM22.832 10.2539H33.0858V12.3047H22.832V10.2539Z" fill="black"/>
<path d="M2.65152 49.4922L0 52.1436V55.0438L1.626 56.6699L0 58.2959V61.1961L1.626 62.8223L0 64.4483V67.3485L2.65152 70H22.2313L24.8828 67.3485V64.4483L23.2567 62.8223L24.8828 61.1961V58.2959L23.2567 56.6699L24.8828 55.0438V52.1436L22.2313 49.4922H2.65152ZM22.832 66.4992L21.3819 67.9492H3.50082L2.05078 66.4992V65.2977L3.50082 63.8477H7.17773V61.7969H3.50082L2.05078 60.3468V59.1453L3.50082 57.6953H21.3819L22.832 59.1453V60.3468L21.3819 61.7969H9.22852V63.8477H21.382L22.832 65.2977V66.4992ZM22.832 54.1945L21.3819 55.6445H3.50082L2.05078 54.1945V52.993L3.50082 51.543H21.3819L22.832 52.993V54.1945Z" fill="black"/>
<path d="M31.035 64.8728H33.0858V66.9236H31.035V64.8728Z" fill="black"/>
<path d="M53.5939 20.5076H55.6447V22.5583H53.5939V20.5076Z" fill="black"/>
<path d="M26.9334 64.8728H28.9842V66.9236H26.9334V64.8728Z" fill="black"/>
<path d="M57.6955 20.5076H65.8984V22.5583H57.6955V20.5076Z" fill="black"/>
</svg>
