<svg width="70" height="70" viewBox="0 0 70 70" fill="none" xmlns="http://www.w3.org/2000/svg">
<path d="M48.1579 36.75C47.5875 36.7484 47.0225 36.86 46.4955 37.0782C45.9685 37.2965 45.49 37.6171 45.0878 38.0215L43.75 39.3596L42.4123 38.0219C42.0092 37.6187 41.5305 37.2988 41.0037 37.0806C40.4769 36.8624 39.9123 36.7501 39.3421 36.75C38.7718 36.75 38.2072 36.8623 37.6804 37.0805C37.1536 37.2987 36.6749 37.6185 36.2717 38.0217C35.8685 38.4249 35.5486 38.9036 35.3304 39.4304C35.1122 39.9572 34.9998 40.5218 34.9998 41.092C34.9998 41.6622 35.1121 42.2268 35.3303 42.7537C35.5485 43.2805 35.8683 43.7591 36.2715 44.1624L42.9763 50.8673C43.0779 50.9689 43.1984 51.0495 43.3311 51.1044C43.4638 51.1594 43.6061 51.1877 43.7497 51.1877C43.8934 51.1877 44.0356 51.1594 44.1683 51.1044C44.301 51.0495 44.4216 50.9689 44.5231 50.8673L51.2285 44.1624C51.8358 43.5551 52.2493 42.7814 52.4168 41.9391C52.5844 41.0968 52.4984 40.2237 52.1697 39.4303C51.841 38.6369 51.2844 37.9588 50.5704 37.4817C49.8563 37.0046 49.0167 36.75 48.1579 36.75ZM49.6815 42.6153L43.75 48.5471L37.8185 42.6153C37.4235 42.2094 37.2043 41.6643 37.2082 41.098C37.2121 40.5317 37.4388 39.9897 37.8393 39.5893C38.2397 39.1888 38.7817 38.9622 39.348 38.9583C39.9143 38.9544 40.4593 39.1737 40.8652 39.5686L42.9763 41.6797C43.0779 41.7813 43.1984 41.8618 43.3311 41.9168C43.4638 41.9718 43.6061 42.0001 43.7497 42.0001C43.8934 42.0001 44.0356 41.9718 44.1683 41.9168C44.301 41.8618 44.4216 41.7813 44.5231 41.6797L46.6348 39.5685C47.0404 39.1724 47.5859 38.9522 48.1528 38.9556C48.7198 38.9589 49.2625 39.1857 49.6634 39.5866C50.0643 39.9875 50.2911 40.5302 50.2944 41.0972C50.2978 41.6641 50.0776 42.2096 49.6815 42.6153Z" fill="black"/>
<path d="M65.0889 19.8402L35.5577 2.34025C35.3884 2.23994 35.1951 2.18716 34.9983 2.1875C34.8015 2.18784 34.6084 2.24127 34.4395 2.34216L4.9082 19.9681C4.74566 20.0651 4.61107 20.2026 4.51761 20.3672C4.42415 20.5319 4.37501 20.7179 4.375 20.9072V66.8447C4.375 67.1348 4.49023 67.413 4.69535 67.6181C4.90047 67.8232 5.17867 67.9384 5.46875 67.9384H5.47107L64.5336 67.8125C64.8232 67.8119 65.1009 67.6964 65.3055 67.4913C65.5101 67.2863 65.625 67.0085 65.625 66.7188V20.7813C65.625 20.5914 65.5755 20.4048 65.4815 20.2398C65.3875 20.0748 65.2522 19.9371 65.0889 19.8402ZM26.25 37.2789V40.4688C26.25 40.6719 26.3066 40.871 26.4133 41.0438C26.5201 41.2165 26.6729 41.3562 26.8546 41.447L30.666 43.3527C31.3752 43.7045 31.9939 44.2146 32.4744 44.8437C32.9549 45.4728 33.2843 46.204 33.437 46.9807L33.9276 49.4333C33.9699 49.645 34.074 49.8395 34.2267 49.9922L34.3376 50.1031C34.7187 50.4835 34.946 50.9912 34.9757 51.5288C35.0055 52.0664 34.8357 52.5961 34.4989 53.0163L34.1463 53.4571L33.7937 53.8978C33.3529 54.4489 32.8008 54.9008 32.1734 55.2239C31.5461 55.5471 30.8576 55.7343 30.153 55.7733C29.4484 55.8124 28.7435 55.7023 28.0843 55.4504C27.4251 55.1984 26.8265 54.8103 26.3275 54.3113L25.9301 53.9138C25.725 53.7087 25.4467 53.5935 25.1567 53.5935C24.8666 53.5935 24.5884 53.7087 24.3832 53.9138C24.1781 54.119 24.0629 54.3972 24.0629 54.6873C24.0629 54.9773 24.1781 55.2555 24.3832 55.4607L24.7807 55.8581C25.4499 56.5274 26.2444 57.0583 27.1189 57.4204C27.9933 57.7825 28.9305 57.9688 29.877 57.9686C30.8235 57.9685 31.7606 57.7818 32.6349 57.4193C33.5092 57.0569 34.3035 56.5257 34.9725 55.8562L36.3334 57.5586C36.4753 57.736 36.6689 57.8647 36.8873 57.9271L37.1816 58.0113C38.891 58.5058 40.4178 59.4906 41.5733 60.8438C42.7288 62.1971 43.4623 63.8593 43.683 65.625H18.308L17.8842 64.247C16.764 60.6152 16.447 56.7833 16.9552 53.0168C17.4634 49.2503 18.7846 45.6393 20.8272 42.4342L21.7044 41.056C21.7245 41.0243 21.7431 40.9916 21.7599 40.958L22.0129 40.4521C22.4212 39.6282 23.0173 38.9117 23.7533 38.3605C24.4893 37.8093 25.3445 37.4388 26.25 37.2789ZM37.8235 55.9194L36.3936 54.1319C36.9572 53.3153 37.2262 52.3312 37.1563 51.3415C37.0864 50.3517 36.6817 49.4152 36.0088 48.686L35.582 46.5515C35.3649 45.4478 34.8969 44.4089 34.2141 43.5149C33.5314 42.621 32.6522 41.896 31.6445 41.3961L28.4375 39.7928V36.496L32.9115 36.0893C33.097 36.0724 33.2752 36.0084 33.429 35.9034C33.5829 35.7984 33.7074 35.6558 33.7907 35.4892L34.8845 33.3017C35.0115 33.0426 35.031 32.7437 34.9387 32.4703C34.8464 32.1969 34.6498 31.971 34.3916 31.8419C34.1335 31.7128 33.8348 31.691 33.5607 31.7812C33.2865 31.8714 33.0591 32.0662 32.928 32.3233L32.1066 33.966L21.3303 34.9453L20.1105 33.1155L20.2537 33.0198C21.0679 32.4748 21.6874 31.6846 22.0222 30.7638C22.357 29.843 22.3897 28.8394 22.1156 27.8987L25.6454 26.1338C25.885 26.014 26.0723 25.8105 26.1718 25.5618L27.5116 22.2122C27.7178 21.6954 28.0343 21.2298 28.4392 20.8481C28.844 20.4663 29.3273 20.1776 29.8553 20.0021L32.4529 19.1361C32.8524 19.0038 33.2645 18.9136 33.6827 18.8669C34.1205 19.3701 34.5136 19.9103 34.8577 20.4816L35.9717 22.3384C36.7674 23.6645 37.1876 25.182 37.1875 26.7285V29.0154C37.1875 30.4658 37.7637 31.8568 38.7893 32.8824C39.8148 33.908 41.2058 34.4842 42.6562 34.4842C44.1067 34.4842 45.4977 33.908 46.5232 32.8824C47.5488 31.8568 48.125 30.4658 48.125 29.0154C48.1248 28.5721 48.097 28.1292 48.0416 27.6893C48.4796 28.255 48.8986 28.8372 49.2986 29.4359C52.8595 34.7901 55.1103 40.9073 55.8688 47.2927C56.5266 52.828 56.036 58.4396 54.4277 63.7769L53.8672 65.6477L45.8858 65.6648C45.6674 63.4215 44.7829 61.2948 43.3462 59.5581C41.9095 57.8215 39.9862 56.5542 37.8235 55.9194ZM18.6908 30.9864C18.6048 30.8573 18.5472 30.7115 18.5218 30.5585C18.4965 30.4055 18.504 30.2488 18.5438 30.0989C18.5836 29.949 18.6548 29.8093 18.7528 29.6891C18.8507 29.5688 18.9731 29.4708 19.1118 29.4014L20.0962 28.9092C20.1482 29.3512 20.0772 29.799 19.891 30.2032C19.7047 30.6074 19.4106 30.9524 19.0408 31.2001L18.8978 31.2958L18.6908 30.9864ZM43.0566 22.6253C43.961 23.4263 44.6854 24.4099 45.182 25.5113C45.6786 26.6126 45.9361 27.8068 45.9375 29.0149C45.9396 29.6247 45.7708 30.2229 45.4502 30.7416C45.1296 31.2603 44.6701 31.6788 44.1238 31.9497C43.6678 32.1763 43.1655 32.2942 42.6563 32.2942C42.1471 32.2942 41.6448 32.1763 41.1888 31.9497C40.6425 31.6789 40.1829 31.2604 39.8623 30.7416C39.5417 30.2229 39.3729 29.6247 39.375 29.0149V26.7285C39.3749 24.7862 38.847 22.8803 37.8477 21.2147L36.7337 19.3579C36.702 19.3051 36.6673 19.2541 36.6349 19.2018C38.4653 19.6991 40.1923 20.5193 41.7345 21.6236C42.1857 21.9456 42.6264 22.2795 43.0566 22.6253ZM63.4375 65.6273L56.1522 65.6428L56.5234 64.4055C58.2176 58.7819 58.7343 52.8694 58.0409 47.0372C57.2421 40.3091 54.8709 33.8636 51.1191 28.2219C49.2876 25.4716 47.0437 23.0195 44.4664 20.9516C44.2023 20.7203 43.9262 20.5005 43.6376 20.2942C43.6042 20.2704 43.5694 20.2485 43.5336 20.2287C43.3591 20.0988 43.1837 19.9697 43.0064 19.8431C40.908 18.3398 38.5127 17.3021 35.9808 16.7995C34.5756 16.5189 33.1215 16.6095 31.762 17.0621L29.1643 17.928C28.3346 18.2037 27.5751 18.6574 26.9389 19.2572C26.3028 19.857 25.8053 20.5885 25.4812 21.4006L24.2949 24.364L18.1331 27.4448C17.717 27.6529 17.3499 27.9471 17.0561 28.3079C16.7623 28.6687 16.5487 29.0878 16.4292 29.5375C16.3098 29.9871 16.2874 30.4571 16.3635 30.9161C16.4395 31.3751 16.6123 31.8126 16.8704 32.1998L17.6832 33.4187L19.8707 36.7C19.9799 36.8638 20.1313 36.995 20.3089 37.0799C20.4864 37.1649 20.6837 37.2003 20.8797 37.1825L21.8535 37.0939C21.1126 37.7692 20.503 38.5757 20.0555 39.4728L19.8276 39.9286L18.9808 41.2592C16.7679 44.7313 15.3366 48.6431 14.7861 52.7235C14.2355 56.8039 14.579 60.9552 15.7925 64.8896L16.0504 65.7277L6.5625 65.7481V21.5282L35.0021 4.55386L63.4375 21.4046V65.6273Z" fill="black"/>
<path d="M29.5312 49.6289C30.3618 49.6289 31.0352 48.9556 31.0352 48.125C31.0352 47.2944 30.3618 46.6211 29.5312 46.6211C28.7007 46.6211 28.0273 47.2944 28.0273 48.125C28.0273 48.9556 28.7007 49.6289 29.5312 49.6289Z" fill="black"/>
<path d="M30.2148 27.3438C31.0454 27.3438 31.7188 26.6704 31.7188 25.8398C31.7188 25.0093 31.0454 24.3359 30.2148 24.3359C29.3843 24.3359 28.7109 25.0093 28.7109 25.8398C28.7109 26.6704 29.3843 27.3438 30.2148 27.3438Z" fill="black"/>
</svg>
