<svg width="70" height="70" viewBox="0 0 70 70" fill="none" xmlns="http://www.w3.org/2000/svg">
<path d="M60.1563 32.8945V31.7188C60.1563 28.5279 58.8888 25.4677 56.6325 23.2114C54.3762 20.9551 51.316 19.6875 48.1251 19.6875C44.9342 19.6875 41.874 20.9551 39.6177 23.2114C37.3614 25.4677 36.0938 28.5279 36.0938 31.7188V36.0938H31.7188C31.4287 36.0938 31.1505 36.209 30.9454 36.4141C30.7403 36.6192 30.6251 36.8974 30.6251 37.1875V41.5625C30.6251 41.8526 30.7403 42.1308 30.9454 42.3359C31.1505 42.541 31.4287 42.6562 31.7188 42.6562H31.8282L32.864 52.5H28.4376V5.46875C28.4376 4.59851 28.0919 3.76391 27.4765 3.14856C26.8612 2.5332 26.0266 2.1875 25.1563 2.1875C24.2861 2.1875 23.4515 2.5332 22.8361 3.14856C22.2208 3.76391 21.8751 4.59851 21.8751 5.46875V52.5H10.9376C10.3576 52.5007 9.80163 52.7314 9.39154 53.1415C8.98145 53.5515 8.75077 54.1076 8.75008 54.6875V57.8341L6.59525 66.4535C6.55495 66.6148 6.55192 66.7831 6.58641 66.9457C6.62089 67.1083 6.69197 67.2609 6.79426 67.3919C6.89655 67.5229 7.02735 67.6288 7.17672 67.7017C7.3261 67.7746 7.49012 67.8125 7.65633 67.8125H59.0626C59.3527 67.8125 59.6309 67.6973 59.836 67.4921C60.0411 67.287 60.1563 67.0088 60.1563 66.7188V62.4012L61.7002 47.7351C62.229 47.445 62.6696 47.0175 62.9754 46.4977C63.2812 45.9779 63.4409 45.3851 63.4376 44.782V36.9141C63.4365 35.9689 63.1095 35.053 62.5118 34.3208C61.9141 33.5885 61.0822 33.0848 60.1563 32.8945ZM38.2813 31.7188C38.2813 30.4261 38.5359 29.146 39.0306 27.9517C39.5253 26.7574 40.2504 25.6722 41.1645 24.7582C42.0786 23.8441 43.1637 23.119 44.358 22.6243C45.5523 22.1296 46.8324 21.875 48.1251 21.875C49.4178 21.875 50.6978 22.1296 51.8921 22.6243C53.0864 23.119 54.1716 23.8441 55.0857 24.7582C55.9997 25.6722 56.7248 26.7574 57.2195 27.9517C57.7142 29.146 57.9688 30.4261 57.9688 31.7188V32.8125H47.8516C46.9064 32.8136 45.9905 33.1406 45.2583 33.7383C44.5261 34.336 44.0224 35.1679 43.8321 36.0938H38.2813V31.7188ZM32.8126 38.2812H43.7501V40.4688H32.8126V38.2812ZM34.0275 42.6562H43.7501V44.7836C43.7519 45.23 43.842 45.6717 44.015 46.0832C44.1881 46.4947 44.4408 46.8679 44.7585 47.1815C45.0632 47.4858 45.4257 47.7261 45.8247 47.8881C46.2237 48.0501 46.6511 48.1306 47.0816 48.1249C47.8714 48.1108 48.6298 47.8136 49.2188 47.2873C49.8198 47.8266 50.5988 48.1249 51.4063 48.1249C52.2138 48.1249 52.9928 47.8266 53.5938 47.2873C54.1946 47.8264 54.9734 48.1246 55.7806 48.1249C56.5878 48.1251 57.3666 47.8272 57.9677 47.2884C58.392 47.6697 58.9092 47.9326 59.4673 48.0505L58.0782 61.25H42.4165L41.5626 57.8341V54.6875C41.5619 54.1076 41.3312 53.5515 40.9211 53.1415C40.511 52.7314 39.955 52.5007 39.3751 52.5H35.0632L34.0275 42.6562ZM24.0626 5.46875C24.0626 5.17867 24.1778 4.90047 24.3829 4.69535C24.588 4.49023 24.8662 4.375 25.1563 4.375C25.4464 4.375 25.7246 4.49023 25.9297 4.69535C26.1348 4.90047 26.2501 5.17867 26.2501 5.46875V52.5H24.0626V5.46875ZM10.9376 54.6875H39.3751V56.875H10.9376V54.6875ZM13.4321 65.625L15.0728 59.0625H17.193L15.5524 65.625H13.4321ZM10.6978 59.0625H12.818L11.1774 65.625H9.05715L10.6978 59.0625ZM19.4478 59.0625H21.7299L20.9096 65.625H17.8071L19.4478 59.0625ZM23.114 65.625L23.9343 59.0625H26.3783L27.1986 65.625H23.114ZM29.4031 65.625L28.5828 59.0625H30.8649L32.5055 65.625H29.4031ZM34.7603 65.625L33.1196 59.0625H35.2399L36.8805 65.625H34.7603ZM39.1353 65.625L37.4946 59.0625H39.6149L41.2555 65.625H39.1353ZM57.9688 65.625H43.5103L42.9634 63.4375H57.9688V65.625ZM61.2501 41.5625V44.782C61.2552 45.0701 61.1507 45.3495 60.9579 45.5637C60.7651 45.7779 60.4981 45.911 60.211 45.9361C60.063 45.9435 59.9149 45.9208 59.776 45.8692C59.637 45.8177 59.5099 45.7384 59.4025 45.6362C59.2951 45.5341 59.2096 45.4111 59.1511 45.2749C59.0927 45.1387 59.0626 44.992 59.0626 44.8438V40.4688H56.8751V44.8438C56.8751 45.1338 56.7598 45.412 56.5547 45.6171C56.3496 45.8223 56.0714 45.9375 55.7813 45.9375C55.4912 45.9375 55.213 45.8223 55.0079 45.6171C54.8028 45.412 54.6876 45.1338 54.6876 44.8438V40.4688H52.5001V44.8438C52.5001 45.1338 52.3848 45.412 52.1797 45.6171C51.9746 45.8223 51.6964 45.9375 51.4063 45.9375C51.1162 45.9375 50.838 45.8223 50.6329 45.6171C50.4278 45.412 50.3126 45.1338 50.3126 44.8438V40.4688H48.1251V44.8438C48.1254 45.131 48.0126 45.4067 47.8112 45.6114C47.6097 45.8161 47.3357 45.9333 47.0486 45.9375H47.0335C46.755 45.9347 46.4889 45.8216 46.2936 45.623C46.182 45.5134 46.0931 45.3829 46.0321 45.2388C45.9711 45.0948 45.9392 44.9401 45.9381 44.7837V36.9141C45.9387 36.4066 46.1405 35.9201 46.4993 35.5612C46.8582 35.2024 47.3447 35.0005 47.8522 35H59.3366C59.844 35.0005 60.3306 35.2024 60.6894 35.5612C61.0482 35.9201 61.2501 36.4066 61.2506 36.9141L61.2501 41.5625Z" fill="black"/>
<path d="M55.7812 53.5938H53.5938V59.0625H55.7812V53.5938Z" fill="black"/>
<path d="M55.7812 49.2188H53.5938V51.4062H55.7812V49.2188Z" fill="black"/>
<path d="M13.1812 37.5335C13.2539 37.7512 13.3931 37.9406 13.5793 38.0748C13.7656 38.209 13.9893 38.2812 14.2188 38.2812C14.4483 38.2812 14.672 38.209 14.8582 38.0748C15.0444 37.9406 15.1837 37.7512 15.2563 37.5335C15.5442 36.6768 16.0265 35.8984 16.6656 35.2594C17.3046 34.6204 18.083 34.1381 18.9397 33.8503C19.1575 33.7777 19.347 33.6384 19.4813 33.4522C19.6155 33.2659 19.6878 33.0422 19.6878 32.8126C19.6878 32.583 19.6155 32.3592 19.4813 32.173C19.347 31.9867 19.1575 31.8474 18.9397 31.7749C18.083 31.4871 17.3046 31.0048 16.6656 30.3657C16.0265 29.7267 15.5442 28.9483 15.2563 28.0917C15.1837 27.8739 15.0444 27.6846 14.8582 27.5504C14.672 27.4162 14.4483 27.344 14.2188 27.344C13.9893 27.344 13.7656 27.4162 13.5793 27.5504C13.3931 27.6846 13.2539 27.8739 13.1812 28.0917C12.8934 28.9483 12.411 29.7267 11.772 30.3657C11.133 31.0048 10.3546 31.4871 9.4979 31.7749C9.28006 31.8474 9.09059 31.9867 8.95632 32.173C8.82205 32.3592 8.7498 32.583 8.7498 32.8126C8.7498 33.0422 8.82205 33.2659 8.95632 33.4522C9.09059 33.6384 9.28006 33.7777 9.4979 33.8503C10.3546 34.1381 11.133 34.6204 11.772 35.2594C12.411 35.8984 12.8934 36.6768 13.1812 37.5335ZM14.2188 30.8393C14.7573 31.6063 15.4249 32.274 16.1919 32.8126C15.4249 33.3511 14.7573 34.0188 14.2188 34.7858C13.6803 34.0188 13.0126 33.3511 12.2457 32.8126C13.0126 32.274 13.6803 31.6063 14.2188 30.8393Z" fill="black"/>
<path d="M67.0647 18.6499C66.208 18.3621 65.4297 17.8798 64.7906 17.2407C64.1516 16.6017 63.6692 15.8233 63.3814 14.9667C63.3087 14.7489 63.1695 14.5596 62.9833 14.4254C62.797 14.2912 62.5733 14.219 62.3438 14.219C62.1143 14.219 61.8906 14.2912 61.7044 14.4254C61.5182 14.5596 61.3789 14.7489 61.3063 14.9667C61.0184 15.8233 60.5361 16.6017 59.897 17.2407C59.258 17.8798 58.4796 18.3621 57.6229 18.6499C57.4051 18.7224 57.2156 18.8617 57.0813 19.048C56.9471 19.2342 56.8748 19.458 56.8748 19.6876C56.8748 19.9172 56.9471 20.141 57.0813 20.3272C57.2156 20.5134 57.4051 20.6527 57.6229 20.7253C58.4796 21.0131 59.258 21.4954 59.897 22.1344C60.5361 22.7734 61.0184 23.5518 61.3063 24.4085C61.3789 24.6262 61.5182 24.8156 61.7044 24.9498C61.8906 25.084 62.1143 25.1562 62.3438 25.1562C62.5733 25.1562 62.797 25.084 62.9833 24.9498C63.1695 24.8156 63.3087 24.6262 63.3814 24.4085C63.6692 23.5518 64.1516 22.7734 64.7906 22.1344C65.4297 21.4954 66.208 21.0131 67.0647 20.7253C67.2825 20.6527 67.472 20.5134 67.6063 20.3272C67.7406 20.141 67.8128 19.9172 67.8128 19.6876C67.8128 19.458 67.7406 19.2342 67.6063 19.048C67.472 18.8617 67.2825 18.7224 67.0647 18.6499ZM62.3438 21.6608C61.8053 20.8938 61.1377 20.2261 60.3707 19.6876C61.1377 19.149 61.8053 18.4813 62.3438 17.7143C62.8823 18.4813 63.55 19.149 64.3169 19.6876C63.55 20.2261 62.8823 20.8938 62.3438 21.6608Z" fill="black"/>
<path d="M7.65629 51.4063C7.88584 51.4063 8.10956 51.3341 8.29578 51.1999C8.48199 51.0656 8.62126 50.8762 8.69385 50.6585C8.98169 49.8018 9.46404 49.0234 10.1031 48.3844C10.7421 47.7454 11.5205 47.2631 12.3772 46.9753C12.595 46.9027 12.7845 46.7634 12.9188 46.5772C13.053 46.391 13.1253 46.1672 13.1253 45.9376C13.1253 45.708 13.053 45.4842 12.9188 45.298C12.7845 45.1117 12.595 44.9724 12.3772 44.8999C11.5205 44.6121 10.7421 44.1298 10.1031 43.4907C9.46404 42.8517 8.98169 42.0733 8.69385 41.2167C8.62123 40.9989 8.48195 40.8096 8.29574 40.6754C8.10953 40.5412 7.88582 40.469 7.65629 40.469C7.42677 40.469 7.20306 40.5412 7.01685 40.6754C6.83064 40.8096 6.69136 40.9989 6.61874 41.2167C6.3309 42.0733 5.84855 42.8517 5.2095 43.4907C4.57045 44.1298 3.79208 44.6121 2.9354 44.8999C2.71756 44.9724 2.52809 45.1117 2.39382 45.298C2.25955 45.4842 2.1873 45.708 2.1873 45.9376C2.1873 46.1672 2.25955 46.391 2.39382 46.5772C2.52809 46.7634 2.71756 46.9027 2.9354 46.9753C3.79208 47.2631 4.57045 47.7454 5.2095 48.3844C5.84855 49.0234 6.3309 49.8018 6.61874 50.6585C6.69133 50.8762 6.8306 51.0656 7.01681 51.1999C7.20303 51.3341 7.42675 51.4063 7.65629 51.4063ZM7.65629 43.9643C8.19481 44.7313 8.86244 45.399 9.62942 45.9376C8.86244 46.4761 8.19481 47.1438 7.65629 47.9108C7.11778 47.1438 6.45015 46.4761 5.68317 45.9376C6.45015 45.399 7.11778 44.7313 7.65629 43.9643Z" fill="black"/>
</svg>
