<svg width="25" height="25" viewBox="0 0 25 25" fill="none" xmlns="http://www.w3.org/2000/svg">
<path d="M12.5 0C5.59158 0 0 5.59063 0 12.5C0 14.6925 0.571823 16.8339 1.65768 18.7225L0.0471115 23.724C-0.0652313 24.0726 0.0270844 24.4549 0.286102 24.7139C0.542641 24.9704 0.92392 25.0662 1.27602 24.9529L6.27747 23.3423C8.16612 24.4282 10.3075 25 12.5 25C19.4084 25 25 19.4094 25 12.5C25 5.59158 19.4094 0 12.5 0ZM12.5 23.0469C10.5196 23.0469 8.58917 22.4943 6.91738 21.4489C6.67686 21.2986 6.37817 21.258 6.10027 21.3474L2.48985 22.5101L3.65257 18.8997C3.74069 18.6258 3.7035 18.3268 3.55091 18.0826C2.50568 16.4108 1.95312 14.4804 1.95312 12.5C1.95312 6.68449 6.68449 1.95312 12.5 1.95312C18.3155 1.95312 23.0469 6.68449 23.0469 12.5C23.0469 18.3155 18.3155 23.0469 12.5 23.0469ZM13.7207 12.5C13.7207 13.1741 13.1742 13.7207 12.5 13.7207C11.8258 13.7207 11.2793 13.1741 11.2793 12.5C11.2793 11.8258 11.8258 11.2793 12.5 11.2793C13.1742 11.2793 13.7207 11.8258 13.7207 12.5ZM18.6035 12.5C18.6035 13.1741 18.0571 13.7207 17.3828 13.7207C16.7086 13.7207 16.1621 13.1741 16.1621 12.5C16.1621 11.8258 16.7086 11.2793 17.3828 11.2793C18.0571 11.2793 18.6035 11.8258 18.6035 12.5ZM8.83789 12.5C8.83789 13.1741 8.29144 13.7207 7.61719 13.7207C6.94313 13.7207 6.39648 13.1741 6.39648 12.5C6.39648 11.8258 6.94313 11.2793 7.61719 11.2793C8.29144 11.2793 8.83789 11.8258 8.83789 12.5Z" fill="white"/>
</svg>
