<svg width="25" height="25" viewBox="0 0 25 25" fill="none" xmlns="http://www.w3.org/2000/svg">
<g clip-path="url(#clip0)">
<path d="M19.8209 3.27558H17.5591V2.26377C17.5591 1.93641 17.2021 1.78763 16.8747 1.78763H15.1189C14.7023 0.597242 13.6607 0.00204896 12.4703 0.00204896C11.293 -0.0422103 10.2222 0.679666 9.82169 1.78763H8.09563C7.76827 1.78763 7.44091 1.93641 7.44091 2.26377V3.27558H5.17913C3.83882 3.28988 2.74231 4.34721 2.67931 5.68609V22.7383C2.67931 24.0478 3.86969 25.0001 5.17913 25.0001H19.8209C21.1303 25.0001 22.3207 24.0478 22.3207 22.7383V5.68615C22.2577 4.34721 21.1612 3.28988 19.8209 3.27558ZM8.63124 2.97802H10.268C10.5538 2.94316 10.7833 2.72579 10.8335 2.44235C11.0097 1.67484 11.6831 1.12391 12.4703 1.10318C13.2502 1.12682 13.9134 1.67946 14.0773 2.44235C14.1307 2.73559 14.3753 2.95574 14.6725 2.97802H16.3688V5.35879H8.63124V2.97802ZM21.1303 22.7384C21.1303 23.3931 20.4756 23.8097 19.8209 23.8097H5.17913C4.52441 23.8097 3.86969 23.3931 3.86969 22.7384V5.68615C3.93041 5.00466 4.49502 4.4785 5.17913 4.46603H7.44085V5.98377C7.4723 6.31723 7.76109 6.56666 8.09557 6.54923H16.8746C17.2153 6.56786 17.5131 6.32184 17.5591 5.98377V4.46597H19.8208C20.5049 4.4785 21.0695 5.0046 21.1303 5.68609V22.7384H21.1303Z" fill="white"/>
<path d="M10.2085 13.3045C9.98529 13.0691 9.6147 13.0559 9.37523 13.2747L7.4706 15.09L6.66709 14.2567C6.44386 14.0214 6.07326 14.0082 5.8338 14.227C5.60327 14.4685 5.60327 14.8485 5.8338 15.09L7.05392 16.3399C7.15953 16.4582 7.31207 16.5236 7.47054 16.5185C7.62752 16.5163 7.77728 16.4521 7.88716 16.3399L10.2084 14.1377C10.4385 13.9266 10.4539 13.5689 10.2428 13.3389C10.2319 13.3268 10.2205 13.3154 10.2085 13.3045Z" fill="white"/>
<path d="M18.7495 14.5841H11.9048C11.5761 14.5841 11.3096 14.8506 11.3096 15.1793C11.3096 15.508 11.5761 15.7745 11.9048 15.7745H18.7495C19.0782 15.7745 19.3447 15.508 19.3447 15.1793C19.3447 14.8506 19.0782 14.5841 18.7495 14.5841Z" fill="white"/>
<path d="M10.2085 8.54286C9.98529 8.30755 9.6147 8.29428 9.37523 8.51312L7.4706 10.3284L6.66709 9.49514C6.44386 9.25983 6.07326 9.24656 5.8338 9.46541C5.60327 9.70693 5.60327 10.0869 5.8338 10.3284L7.05392 11.5783C7.15953 11.6966 7.31207 11.762 7.47054 11.7569C7.62752 11.7547 7.77728 11.6905 7.88716 11.5783L10.2084 9.37615C10.4385 9.16505 10.4539 8.80733 10.2428 8.57726C10.2319 8.56524 10.2205 8.55379 10.2085 8.54286Z" fill="white"/>
<path d="M18.7495 9.82251H11.9048C11.5761 9.82251 11.3096 10.089 11.3096 10.4177C11.3096 10.7464 11.5761 11.0129 11.9048 11.0129H18.7495C19.0782 11.0129 19.3447 10.7464 19.3447 10.4177C19.3447 10.089 19.0782 9.82251 18.7495 9.82251Z" fill="white"/>
<path d="M10.2085 18.0659C9.98529 17.8306 9.6147 17.8174 9.37523 18.0362L7.4706 19.8515L6.66709 19.0182C6.44386 18.7829 6.07326 18.7697 5.8338 18.9885C5.60327 19.23 5.60327 19.61 5.8338 19.8515L7.05392 21.1014C7.15953 21.2196 7.31207 21.285 7.47054 21.28C7.62752 21.2777 7.77728 21.2136 7.88716 21.1014L10.2084 18.8992C10.4385 18.6881 10.4539 18.3304 10.2428 18.1003C10.2319 18.0883 10.2205 18.0769 10.2085 18.0659Z" fill="white"/>
<path d="M18.7495 19.3457H11.9048C11.5761 19.3457 11.3096 19.6122 11.3096 19.9409C11.3096 20.2696 11.5761 20.5361 11.9048 20.5361H18.7495C19.0782 20.5361 19.3447 20.2696 19.3447 19.9409C19.3447 19.6122 19.0782 19.3457 18.7495 19.3457Z" fill="white"/>
</g>
<defs>
<clipPath id="clip0">
<rect width="25" height="25" fill="white"/>
</clipPath>
</defs>
</svg>
